<?xml version="1.0" encoding="UTF-8"?>
<svg width="24px" height="24px" viewBox="0 0 24 24" version="1.1" xmlns="http://www.w3.org/2000/svg" xmlns:xlink="http://www.w3.org/1999/xlink">
    <title>锁屏</title>
    <defs>
        <linearGradient x1="-3.99791718%" y1="-9.57435989%" x2="78.8337326%" y2="90.5%" id="linearGradient-1">
            <stop stop-color="#A4C3DF" offset="0%"></stop>
            <stop stop-color="#6C7B8E" offset="100%"></stop>
        </linearGradient>
        <linearGradient x1="1.43909883%" y1="31.8571146%" x2="71.7511905%" y2="57.7498344%" id="linearGradient-2">
            <stop stop-color="#00131B" offset="0%"></stop>
            <stop stop-color="#495C63" offset="100%"></stop>
        </linearGradient>
        <linearGradient x1="12.6770764%" y1="31.7087257%" x2="81.6474537%" y2="16.8021552%" id="linearGradient-3">
            <stop stop-color="#FFFFFF" stop-opacity="0" offset="0%"></stop>
            <stop stop-color="#FFFFFF" stop-opacity="0.5" offset="100%"></stop>
        </linearGradient>
        <linearGradient x1="50%" y1="0.818201014%" x2="50%" y2="99.6304899%" id="linearGradient-4">
            <stop stop-color="#49D0CB" offset="0%"></stop>
            <stop stop-color="#0A5060" offset="100%"></stop>
        </linearGradient>
        <filter id="filter-5">
            <feColorMatrix in="SourceGraphic" type="matrix" values="0 0 0 0 1.000000 0 0 0 0 1.000000 0 0 0 0 1.000000 0 0 0 1.000000 0"></feColorMatrix>
        </filter>
    </defs>
    <g id="页面-1" stroke="none" stroke-width="1" fill="none" fill-rule="evenodd">
        <g id="锁屏">
            <rect id="矩形" stroke="#979797" fill="#D8D8D8" opacity="0" x="0.5" y="0.5" width="22.1111111" height="23"></rect>
            <g id="编组-9" transform="translate(1.000000, 4.000000)">
                <g id="编组-7">
                    <g id="电脑" transform="translate(0.000000, 0.000406)">
                        <path d="M18.5702273,0 L1.42977273,0 C0.641363636,0 0,0.643536255 0,1.44125546 L0,12.9600733 C0,13.7548142 0.638409091,14.4013288 1.42977273,14.4013288 L8.57295455,14.4013288 L8.57295455,16.5617228 L5,16.5617228 C4.60590909,16.5617228 4.28659091,16.8836055 4.28659091,17.2808614 L4.28659091,18 L15.7136364,18 L15.7136364,17.2808614 C15.7136364,16.8836055 15.3943182,16.5617228 15,16.5617228 L11.4270455,16.5617228 L11.4270455,14.4013288 L18.5702273,14.4013288 C19.3586364,14.4013288 20,13.7577925 20,12.9600733 L20,1.44125546 C20,0.643536255 19.3586364,0 18.5702273,0 Z" id="路径" fill="url(#linearGradient-1)"></path>
                        <polygon id="路径" fill="url(#linearGradient-2)" fill-rule="nonzero" points="1 1 19 1 19 12 1 12"></polygon>
                    </g>
                    <path d="M5.196,14.401 L1.42977273,14.4017352 C0.638409091,14.4017352 -1.59872116e-14,13.7552207 -1.59872116e-14,12.9604798 L-1.59872116e-14,12.9604798 L-1.59872116e-14,1.44166192 C-1.59872116e-14,0.643942715 0.641363636,0.000406460551 1.42977273,0.000406460551 L1.42977273,0.000406460551 L13.511,1.15463195e-14 L5.196,14.401 Z" id="形状结合" fill="url(#linearGradient-3)"></path>
                </g>
                <path d="M4.71422958,2.50929147 L2.78569804,2.50929147 L2.78569803,2.50929147 C2.66736342,2.50929147 2.57143041,2.59471262 2.57141675,2.70009298 L2.57141675,5.74597497 L2.57141675,5.74597496 C2.57141675,5.88649353 2.44350068,6.00040646 2.28570838,6.00040646 C2.12791607,6.00040646 2,5.88649353 2,5.74597496 L2,2.70011509 L2,2.70009308 C2,2.31366585 2.35176789,2.00040646 2.78569803,2.00040646 C2.78570631,2.00040646 2.78571458,2.00040646 2.78572286,2.00040646 L4.71427922,2.00040646 L4.71427921,2.00040646 C4.87207847,2.00040646 5,2.11432425 5,2.25484901 C5,2.39537378 4.87207847,2.50929157 4.71427921,2.50929157 L4.71422958,2.50929147 Z" id="形状" fill="#FFFFFF" fill-rule="nonzero" opacity="0.575514294"></path>
            </g>
            <g id="编组-16" transform="translate(12.000000, 11.000000)">
                <circle id="椭圆形" fill="#FFFFFF" cx="5.5" cy="5.5" r="5.5"></circle>
                <circle id="椭圆形" fill="url(#linearGradient-4)" fill-rule="nonzero" cx="5.5" cy="5.5" r="4.5"></circle>
            </g>
            <g filter="url(#filter-5)" id="锁">
                <g transform="translate(15.000000, 14.000000)">
                    <path d="M5,2.5 C5,2.328125 4.83928571,2.1875 4.64285714,2.1875 L4.28571429,2.1875 L4.28571429,1.71875 L4.28571429,1.5625 C4.28571429,0.703125 3.48214286,0 2.5,0 C1.51785714,0 0.714285714,0.703125 0.714285714,1.5625 L0.714285714,2.1875 L0.357142857,2.1875 C0.160714286,2.1875 0,2.328125 0,2.5 L0,4.0625 C0,4.578125 0.482142857,5 1.07142857,5 L3.92857143,5 C4.51785714,5 5,4.578125 5,4.0625 L5,3.28125 L5,3.1875 L5,2.5 Z M2.67857143,3.71875 L2.67857143,4.0625 C2.67857143,4.15625 2.60714286,4.21875 2.5,4.21875 C2.39285714,4.21875 2.32142857,4.15625 2.32142857,4.0625 L2.32142857,3.75 L2.32142857,3.71875 C2.21428571,3.671875 2.14285714,3.5625 2.14285714,3.4375 C2.14285714,3.265625 2.30357143,3.125 2.5,3.125 C2.69642857,3.125 2.85714286,3.265625 2.85714286,3.4375 C2.85714286,3.5625 2.78571429,3.65625 2.67857143,3.71875 L2.67857143,3.71875 Z M3.57142857,1.71875 L3.57142857,2.1875 L1.42857143,2.1875 L1.42857143,1.71875 L1.44642857,1.71875 C1.42857143,1.671875 1.42857143,1.609375 1.42857143,1.5625 C1.42857143,1.046875 1.91071429,0.625 2.5,0.625 C3.08928571,0.625 3.57142857,1.046875 3.57142857,1.5625 L3.57142857,1.71875 Z" id="形状" fill="#000000" fill-rule="nonzero"></path>
                </g>
            </g>
        </g>
    </g>
</svg>