<?xml version="1.0" encoding="UTF-8"?>
<svg width="71px" height="16px" viewBox="0 0 71 16" version="1.1" xmlns="http://www.w3.org/2000/svg" xmlns:xlink="http://www.w3.org/1999/xlink">
    <title>欢迎登录</title>
    <g id="页面-1" stroke="none" stroke-width="1" fill="none" fill-rule="evenodd">
        <g id="login02备份-13" transform="translate(-1488.000000, -345.000000)" fill="#2D354A" fill-rule="nonzero">
            <path d="M1495.51465,351.248047 C1496.28809,351.107422 1496.88574,350.852539 1497.30762,350.483398 C1497.57129,350.249023 1497.77344,350.013184 1497.91406,349.775879 C1498.05469,349.538574 1498.24805,349.103516 1498.49414,348.470703 L1498.49414,348.470703 L1502.73047,348.470703 C1503.07031,348.470703 1503.24023,348.587891 1503.24023,348.822266 C1503.24023,348.916016 1503.17578,349.088867 1503.04688,349.34082 C1502.99414,349.43457 1502.86816,349.707031 1502.66895,350.158203 L1502.66895,350.158203 L1502.2998,350.958008 L1504.22461,350.958008 C1504.78125,349.72168 1505.05957,348.869141 1505.05957,348.400391 C1505.05957,348.007812 1504.91602,347.670898 1504.62891,347.389648 C1504.27148,347.032227 1503.74414,346.853516 1503.04688,346.853516 L1503.04688,346.853516 L1498.89844,346.853516 L1499.00391,346.378906 L1499.12695,345.886719 L1497.44824,345.886719 C1497.40137,346.080078 1497.35449,346.276367 1497.30762,346.475586 C1497.17285,347.067383 1497.09082,347.413086 1497.06152,347.512695 C1496.8916,348.168945 1496.72461,348.625977 1496.56055,348.883789 C1496.36719,349.182617 1496.01855,349.425781 1495.51465,349.613281 L1495.51465,349.613281 L1495.51465,351.248047 Z M1495.54102,360.757812 L1495.54102,358.850586 C1494.80859,358.405273 1494.21094,358.012695 1493.74805,357.672852 C1493.66602,357.614258 1493.5459,357.529297 1493.3877,357.417969 C1493.95605,356.650391 1494.33691,356.023438 1494.53027,355.537109 C1494.81738,354.798828 1494.96094,354.081055 1494.96094,353.383789 L1494.96094,353.383789 L1494.96094,348.119141 C1494.96094,346.941406 1494.33398,346.352539 1493.08008,346.352539 L1493.08008,346.352539 L1488.89648,346.352539 L1488.89648,348.004883 L1492.44727,348.004883 C1492.94531,348.004883 1493.19434,348.333008 1493.19434,348.989258 L1493.19434,348.989258 L1493.19434,352.786133 C1493.19434,353.500977 1493.09766,354.139648 1492.9043,354.702148 C1492.76953,355.094727 1492.50293,355.581055 1492.10449,356.161133 C1491.62988,355.481445 1491.32227,354.957031 1491.18164,354.587891 C1491,354.107422 1490.90918,353.580078 1490.90918,353.005859 L1490.90918,353.005859 L1490.90918,349.305664 L1489.14258,349.305664 L1489.14258,352.856445 C1489.14258,354.086914 1489.41504,355.167969 1489.95996,356.099609 C1490.10059,356.339844 1490.42285,356.776367 1490.92676,357.40918 C1490.37598,357.836914 1489.7168,358.255859 1488.94922,358.666016 L1488.94922,358.666016 L1488.94922,360.6875 C1490.14453,360.083984 1491.21973,359.395508 1492.1748,358.62207 C1493.29395,359.506836 1494.41602,360.21875 1495.54102,360.757812 L1495.54102,360.757812 Z M1495.9541,360.810547 C1496.45801,360.675781 1496.8623,360.532227 1497.16699,360.379883 C1497.9873,359.952148 1498.68164,359.275391 1499.25,358.349609 C1499.78906,357.464844 1500.22852,356.222656 1500.56836,354.623047 C1500.77344,355.449219 1500.93457,356.055664 1501.05176,356.442383 C1501.32129,357.31543 1501.72559,358.112305 1502.26465,358.833008 C1503.02637,359.852539 1504.00195,360.505859 1505.19141,360.792969 L1505.19141,360.792969 L1505.19141,359.149414 C1504.65234,358.862305 1504.22754,358.551758 1503.91699,358.217773 C1503.17871,357.426758 1502.65723,356.363281 1502.35254,355.027344 C1502.27637,354.675781 1502.1709,353.890625 1502.03613,352.671875 L1502.03613,352.671875 L1500.88477,352.671875 L1500.95508,351.652344 L1501.03418,350.518555 L1499.35547,350.518555 C1499.25,352.592773 1499.02148,354.236328 1498.66992,355.449219 C1498.14258,357.283203 1497.2373,358.510742 1495.9541,359.131836 L1495.9541,359.131836 L1495.9541,360.810547 Z M1509.54902,347.512695 L1509.54902,345.842773 L1506.49043,345.842773 L1506.49043,347.512695 L1509.54902,347.512695 Z M1518.10078,358.332031 L1518.10078,348.075195 C1518.10078,347.864258 1518.13887,347.723633 1518.21504,347.65332 C1518.30879,347.55957 1518.4875,347.512695 1518.75117,347.512695 L1518.75117,347.512695 L1520.44746,347.512695 C1520.82246,347.512695 1521.00996,347.700195 1521.00996,348.075195 L1521.00996,348.075195 L1521.00996,354.763672 C1521.00996,355.150391 1520.82246,355.34375 1520.44746,355.34375 L1520.44746,355.34375 L1519.36641,355.34375 L1519.36641,356.952148 L1520.84297,356.952148 C1521.4875,356.952148 1521.95039,356.802734 1522.23164,356.503906 C1522.49531,356.222656 1522.62715,355.745117 1522.62715,355.071289 L1522.62715,355.071289 L1522.62715,347.495117 C1522.62715,346.920898 1522.41914,346.490234 1522.00312,346.203125 C1521.72187,346.009766 1521.26191,345.913086 1520.62324,345.913086 L1520.62324,345.913086 L1518.41557,345.913983 C1518.07764,345.91757 1517.84088,345.93192 1517.70527,345.957031 C1517.36543,346.015625 1517.09297,346.144531 1516.88789,346.34375 C1516.6125,346.613281 1516.4748,347.017578 1516.4748,347.556641 L1516.4748,347.556641 L1516.4748,358.332031 L1518.10078,358.332031 Z M1515.5168,357.207031 L1515.5168,355.598633 L1513.51605,355.598281 C1513.35574,355.597344 1513.24043,355.594531 1513.17012,355.589844 C1513.01777,355.572266 1512.87422,355.501953 1512.73945,355.378906 C1512.56367,355.220703 1512.47578,354.97168 1512.47578,354.631836 L1512.47578,354.631836 L1512.47578,348.584961 C1512.47578,347.905273 1512.84199,347.56543 1513.57441,347.56543 L1513.57441,347.56543 L1515.5168,347.56543 L1515.5168,345.957031 L1513.14375,345.957031 C1512.44648,345.957031 1511.87812,346.176758 1511.43867,346.616211 C1511.04609,347.00293 1510.8498,347.583008 1510.8498,348.356445 L1510.8498,348.356445 L1510.8498,354.693359 C1510.8498,355.501953 1511.05195,356.123047 1511.45625,356.556641 C1511.85469,356.990234 1512.41719,357.207031 1513.14375,357.207031 L1513.14375,357.207031 L1515.5168,357.207031 Z M1522.67109,360.766602 L1522.67109,359.140625 L1510.63008,359.140625 C1509.72773,359.140625 1509.27656,358.733398 1509.27656,357.918945 L1509.27656,357.918945 L1509.27656,351.669922 C1509.27656,350.931641 1509.10664,350.416016 1508.7668,350.123047 C1508.46211,349.871094 1507.97871,349.745117 1507.3166,349.745117 L1507.3166,349.745117 L1506.46406,349.745117 L1506.46406,351.371094 L1506.86836,351.371094 C1507.3957,351.371094 1507.65937,351.625977 1507.65937,352.135742 L1507.65937,352.135742 L1507.65937,357.769531 C1507.65937,358.572266 1507.26094,359.043945 1506.46406,359.18457 L1506.46406,359.18457 L1506.46406,360.766602 C1506.92695,360.749023 1507.30195,360.672852 1507.58906,360.538086 C1507.84687,360.420898 1508.14277,360.212891 1508.47676,359.914062 C1508.79316,360.207031 1509.0832,360.40918 1509.34687,360.520508 C1509.74531,360.68457 1510.23457,360.766602 1510.81465,360.766602 L1510.81465,360.766602 L1522.67109,360.766602 Z M1537.54922,357.532227 C1537.91836,357.532227 1538.19961,357.501465 1538.39297,357.439941 C1538.58633,357.378418 1538.76797,357.262695 1538.93789,357.092773 C1539.21328,356.817383 1539.35098,356.421875 1539.35098,355.90625 L1539.35098,355.90625 L1539.35098,354.130859 C1539.35098,353.966797 1539.31289,353.782227 1539.23672,353.577148 C1539.5707,353.65332 1539.91055,353.720703 1540.25625,353.779297 L1540.25625,353.779297 L1540.25625,352.144531 C1537.78945,351.669922 1536.04629,350.568359 1535.02676,348.839844 C1534.58145,348.078125 1534.16836,347.067383 1533.7875,345.807617 L1533.7875,345.807617 L1531.98574,345.807617 C1532.21426,346.727539 1532.46035,347.518555 1532.72402,348.180664 C1532.9877,348.825195 1533.33047,349.452148 1533.75234,350.061523 L1533.75234,350.061523 L1530.4125,350.061523 C1530.81094,349.545898 1531.10977,349.129883 1531.30898,348.813477 C1531.54922,348.438477 1531.66934,348.069336 1531.66934,347.706055 C1531.66934,347.225586 1531.52285,346.841797 1531.22988,346.554688 C1530.88418,346.208984 1530.45352,346.036133 1529.93789,346.036133 L1529.93789,346.036133 L1523.9877,346.036133 L1523.9877,347.635742 L1529.54238,347.635742 C1529.82363,347.635742 1529.96426,347.714844 1529.96426,347.873047 C1529.96426,348.007812 1529.81484,348.274414 1529.51602,348.672852 C1528.77187,349.686523 1527.86367,350.498047 1526.79141,351.107422 C1526.09414,351.505859 1525.14199,351.854492 1523.93496,352.15332 L1523.93496,352.15332 L1523.94375,353.796875 C1524.28945,353.703125 1524.64395,353.591797 1525.00723,353.462891 C1524.90762,353.679688 1524.85488,353.887695 1524.84902,354.086914 L1524.84902,354.086914 L1524.84902,355.879883 C1524.84316,356.448242 1524.97793,356.855469 1525.25332,357.101562 C1525.57559,357.388672 1526.06777,357.532227 1526.72988,357.532227 L1526.72988,357.532227 L1537.54922,357.532227 Z M1540.14199,347.547852 L1540.14199,345.921875 L1536.33633,345.921875 L1536.33633,347.547852 L1540.14199,347.547852 Z M1540.25625,350.228516 L1540.25625,348.628906 L1536.51211,348.628906 L1536.51211,350.228516 L1540.25625,350.228516 Z M1527.40664,350.386719 L1527.40664,348.760742 L1524.0668,348.760742 L1524.0668,350.386719 L1527.40664,350.386719 Z M1536.7582,352.645508 L1527.06387,352.645508 C1527.59707,352.416992 1528.16836,352.088867 1528.77773,351.661133 L1528.77773,351.661133 L1535.21133,351.661133 C1535.79727,352.112305 1536.31289,352.44043 1536.7582,352.645508 L1536.7582,352.645508 Z M1537.06582,355.90625 L1526.99355,355.90625 C1526.64785,355.90625 1526.475,355.730469 1526.475,355.378906 L1526.475,355.378906 L1526.475,354.702148 C1526.475,354.415039 1526.65664,354.271484 1527.01992,354.271484 L1527.01992,354.271484 L1537.03945,354.271484 C1537.22695,354.271484 1537.37637,354.297852 1537.4877,354.350586 C1537.62832,354.40918 1537.69863,354.558594 1537.69863,354.798828 L1537.69863,354.798828 L1537.69863,355.291016 C1537.69863,355.560547 1537.65176,355.736328 1537.55801,355.818359 C1537.49355,355.876953 1537.32949,355.90625 1537.06582,355.90625 L1537.06582,355.90625 Z M1540.22988,360.757812 L1540.22988,359.158203 L1537.54922,359.158203 L1537.54922,357.804688 L1535.93203,357.804688 L1535.93203,359.158203 L1528.27676,359.158203 L1528.27676,357.804688 L1526.65957,357.804688 L1526.65957,359.158203 L1523.9877,359.158203 L1523.9877,360.757812 L1540.22988,360.757812 Z M1548.71836,360.828125 C1549.18711,360.828125 1549.5709,360.775391 1549.86973,360.669922 C1550.12168,360.587891 1550.36484,360.420898 1550.59922,360.168945 C1551.00938,359.735352 1551.21445,359.172852 1551.21445,358.481445 L1551.21445,358.481445 L1551.21445,352.803711 L1558.05234,352.803711 L1558.05234,351.177734 L1557.41953,351.177734 L1557.41953,347.908203 C1557.41953,347.369141 1557.20566,346.891602 1556.77793,346.475586 C1556.34434,346.05957 1555.70566,345.851562 1554.86191,345.851562 L1554.86191,345.851562 L1542.24961,345.851562 L1542.24961,347.477539 L1554.36094,347.477539 C1554.98203,347.477539 1555.39219,347.600586 1555.59141,347.84668 C1555.70273,347.987305 1555.77012,348.224609 1555.79355,348.558594 L1555.79355,348.558594 L1542.3375,348.558594 L1542.3375,350.18457 L1555.79355,350.18457 L1555.79355,351.177734 L1541.75742,351.177734 L1541.75742,352.803711 L1549.58848,352.803711 L1549.58848,358.182617 C1549.58848,358.581055 1549.43613,358.876953 1549.13145,359.070312 C1548.99082,359.164062 1548.65977,359.210938 1548.13828,359.210938 L1548.13828,359.210938 L1546.85508,359.210938 L1546.85508,360.828125 L1548.71836,360.828125 Z M1546.52109,355.317383 L1546.52109,353.744141 L1541.97715,353.744141 L1541.97715,355.317383 L1546.52109,355.317383 Z M1557.97324,355.317383 L1557.97324,353.744141 L1553.42051,353.744141 L1553.42051,355.317383 L1557.97324,355.317383 Z M1541.81016,360.828125 C1542.35508,360.798828 1542.77988,360.722656 1543.08457,360.599609 C1543.7291,360.341797 1544.26523,359.873047 1544.69297,359.193359 C1544.89805,358.865234 1545.17051,358.15625 1545.51035,357.066406 L1545.51035,357.066406 L1545.81797,356.064453 L1544.06895,356.064453 L1543.48887,357.804688 C1543.30723,358.355469 1543.07578,358.730469 1542.79453,358.929688 C1542.58945,359.076172 1542.26133,359.158203 1541.81016,359.175781 L1541.81016,359.175781 L1541.81016,360.828125 Z M1558.05234,360.828125 L1558.05234,359.175781 C1557.63047,359.169922 1557.32285,359.105469 1557.12949,358.982422 C1556.8248,358.789062 1556.54063,358.299805 1556.27695,357.514648 L1556.27695,357.514648 L1555.79355,356.064453 L1554.03574,356.064453 L1554.35215,357.101562 C1554.67441,358.150391 1554.95273,358.856445 1555.18711,359.219727 C1555.59727,359.875977 1556.12461,360.333008 1556.76914,360.59082 C1557.07383,360.713867 1557.50156,360.792969 1558.05234,360.828125 L1558.05234,360.828125 Z" id="欢迎登录"></path>
        </g>
    </g>
</svg>