<?xml version="1.0" encoding="UTF-8"?>
<svg width="295px" height="31px" viewBox="0 0 295 31" version="1.1" xmlns="http://www.w3.org/2000/svg" xmlns:xlink="http://www.w3.org/1999/xlink">
    <title>终端管理系统</title>
    <defs>
        <path d="M56.8652344,76.0117188 L56.8652344,72.7597656 L50.6953125,72.7597656 L57.375,60.9648438 L53.4199219,60.9648438 L52.6289062,62.2832031 L50.484375,62.2832031 L55.6875,52.7558594 L51.8554688,52.7558594 L47.53125,60.6132812 C46.875,61.7851562 46.546875,62.7578125 46.546875,63.53125 C46.546875,64.84375 47.3847656,65.5058594 49.0605469,65.5175781 L49.0605469,65.5175781 L50.8007812,65.5351562 L47.3730469,71.7050781 C46.9277344,72.4902344 46.7050781,73.2695312 46.7050781,74.0429688 C46.7050781,74.5117188 46.8574219,74.9101562 47.1621094,75.2382812 C47.6308594,75.7539062 48.6328125,76.0117188 50.1679688,76.0117188 L50.1679688,76.0117188 L56.8652344,76.0117188 Z M79.2070312,69.5605469 L79.2070312,66.4492188 L79.2070312,66.4492188 L78.75,66.4492188 C77.859375,66.4492188 76.6640625,66.2675781 75.1640625,65.9042969 C74.4023438,65.7167969 73.6054688,65.4472656 72.7734375,65.0957031 L72.7734375,65.0957031 L76.7988281,61.9667969 C78.4277344,60.7011719 79.2421875,59.3476562 79.2421875,57.90625 C79.2421875,56.8867188 78.8085938,56.0429688 77.9414062,55.375 C77.109375,54.7421875 75.9609375,54.4316406 74.4960938,54.4433594 L74.4960938,54.4433594 L65.3554688,54.4609375 C65.4726562,53.828125 65.5722656,53.2949219 65.6542969,52.8613281 L65.6542969,52.8613281 L62.2792969,52.8613281 C61.9277344,54.4199219 61.5292969,55.6796875 61.0839844,56.640625 C60.6386719,57.578125 60.0410156,58.421875 59.2910156,59.171875 L59.2910156,59.171875 L59.2910156,62.9160156 C59.8535156,62.6464844 60.6796875,62.1074219 61.7695312,61.2988281 L61.7695312,61.2988281 L62.8242188,62.125 L64.2128906,63.2324219 L65.7246094,64.4277344 L66.4101562,64.9550781 C65.25,65.4355469 64.0898438,65.7636719 62.9296875,65.9394531 C61.9804688,66.0800781 60.7675781,66.1914062 59.2910156,66.2734375 L59.2910156,66.2734375 L59.2910156,69.4726562 C61.0136719,69.3671875 62.4550781,69.2148438 63.6152344,69.015625 C65.5136719,68.7109375 67.5410156,68.0488281 69.6972656,67.0292969 C72.6269531,68.6113281 75.796875,69.4550781 79.2070312,69.5605469 L79.2070312,69.5605469 Z M69.6796875,63.2851562 C68.1796875,62.2890625 67.1542969,61.5449219 66.6035156,61.0527344 L66.6035156,61.0527344 L62.0332031,61.0175781 C62.8417969,60.1152344 63.4863281,59.1894531 63.9667969,58.2402344 C64.0253906,58.1347656 64.1074219,57.9765625 64.2128906,57.765625 L64.2128906,57.765625 L73.96875,57.765625 C74.5078125,57.765625 74.8828125,57.9121094 75.09375,58.2050781 C75.1757812,58.3222656 75.2167969,58.4335938 75.2167969,58.5390625 C75.2167969,59.2421875 73.3710938,60.8242188 69.6796875,63.2851562 Z M63.4394531,75.203125 L79.3125,75.1855469 L79.3125,71.9335938 L63.8261719,71.9335938 L63.3339844,71.96875 C62.8417969,72.0039062 62.578125,71.7167969 62.5429688,71.1074219 L62.5429688,71.1074219 L59.2207031,71.1074219 C59.6542969,73.8378906 61.0605469,75.203125 63.4394531,75.203125 L63.4394531,75.203125 Z M79.3125,82.5332031 L79.3125,79.28125 L63.9140625,79.28125 C63.2929688,79.28125 62.90625,79.2402344 62.7539062,79.1582031 C62.5898438,79.0644531 62.5078125,78.9179688 62.5078125,78.71875 C62.5078125,78.671875 62.5195312,78.6015625 62.5429688,78.5078125 L62.5429688,78.5078125 L59.2207031,78.5078125 C59.3261719,79.2109375 59.484375,79.7792969 59.6953125,80.2128906 C60.1757812,81.2089844 60.8496094,81.8769531 61.7167969,82.2167969 C62.2441406,82.4277344 63.0410156,82.5332031 64.1074219,82.5332031 L64.1074219,82.5332031 L79.3125,82.5332031 Z M57.1992188,82.3574219 L57.1992188,79.1054688 L46.828125,79.1054688 L46.828125,82.3574219 L57.1992188,82.3574219 Z M128.084766,62.8105469 C129.116016,62.8105469 129.907031,62.4707031 130.457812,61.7910156 C130.926562,61.2167969 131.160937,60.4667969 131.160937,59.5410156 L131.160937,59.5410156 L131.178516,53.4238281 L127.926562,53.4238281 L127.944141,57.90625 C127.944141,58.4921875 127.873828,58.9023438 127.733203,59.1367188 C127.592578,59.40625 127.235156,59.5410156 126.660937,59.5410156 L126.660937,59.5410156 L123.285937,59.5585938 L123.285937,52.8789062 L120.051562,52.8789062 L120.051562,59.5585938 L116.307422,59.5410156 C115.979297,59.5410156 115.739062,59.4355469 115.586719,59.2246094 C115.492969,59.0839844 115.446094,58.75 115.446094,58.2226562 L115.446094,58.2226562 L115.446094,53.4238281 L112.194141,53.4238281 L112.194141,59.5058594 C112.194141,60.3847656 112.334766,61.0410156 112.616016,61.4746094 C113.213672,62.3652344 114.244922,62.8105469 115.709766,62.8105469 L115.709766,62.8105469 L128.084766,62.8105469 Z M110.805469,58.5566406 L110.805469,55.3046875 L106.569141,55.3046875 L106.569141,52.984375 L103.317188,52.984375 L103.317188,55.3046875 L98.9226563,55.2695312 L98.9050781,58.5566406 L110.805469,58.5566406 Z M103.053516,77.5234375 L103.053516,60.6660156 L100.0125,60.6660156 L100.0125,77.5234375 L103.053516,77.5234375 Z M109.276172,77.5234375 L109.276172,60.6660156 L106.235156,60.6660156 L106.235156,77.5234375 L109.276172,77.5234375 Z M120.684375,82.7265625 L120.684375,72.7246094 L123.004687,72.7246094 L123.004687,82.7265625 L125.992969,82.7265625 L125.992969,72.7246094 L127.276172,72.7246094 C127.498828,72.7246094 127.698047,72.8066406 127.873828,72.9707031 C128.049609,73.1464844 128.1375,73.3457031 128.1375,73.5683594 L128.1375,73.5683594 L128.1375,78.4375 C128.1375,78.859375 128.032031,79.1347656 127.821094,79.2636719 C127.645312,79.3925781 127.328906,79.4570312 126.871875,79.4570312 L126.871875,79.4570312 L126.871875,82.65625 L128.225391,82.65625 C129.221484,82.65625 130.000781,82.375 130.563281,81.8125 C131.114062,81.2617188 131.389453,80.5 131.389453,79.5273438 L131.389453,79.5273438 L131.389453,72.2675781 C131.389453,71.5410156 131.084766,70.890625 130.475391,70.3164062 C129.877734,69.7539062 129.174609,69.4726562 128.366016,69.4726562 L128.366016,69.4726562 L123.444141,69.4726562 L123.444141,67.6445312 L131.442187,67.6445312 L131.442187,64.4101562 L112.264453,64.4101562 L112.264453,67.6445312 L120.192187,67.6445312 L120.192187,69.4726562 L115.217578,69.4726562 C114.408984,69.4726562 113.705859,69.7949219 113.108203,70.4394531 C112.557422,71.0253906 112.282031,71.6875 112.282031,72.4257812 L112.282031,72.4257812 L112.317187,82.65625 L115.569141,82.65625 L115.569141,74.0253906 C115.569141,73.1464844 115.815234,72.7128906 116.307422,72.7246094 L116.307422,72.7246094 L117.643359,72.7246094 L117.643359,82.7265625 L120.684375,82.7265625 Z M110.612109,82.7089844 L110.612109,79.4042969 L98.9578125,79.4042969 L98.9578125,82.7089844 L110.612109,82.7089844 Z M179.159766,82.5859375 C180.460547,82.5859375 181.280859,82.3574219 181.620703,81.9003906 C181.831641,81.5957031 181.937109,81.0859375 181.937109,80.3710938 L181.937109,80.3710938 L181.937109,76.9785156 C181.937109,76.3339844 181.884375,75.8945312 181.778906,75.6601562 C181.673438,75.4140625 181.456641,75.1855469 181.128516,74.9746094 C180.730078,74.7167969 179.259375,74.5878906 176.716406,74.5878906 L176.716406,74.5878906 L156.185156,74.5878906 L156.185156,73.1464844 L178.93125,73.1464844 C180.208594,73.1464844 181.052344,72.9355469 181.4625,72.5136719 C181.778906,72.1972656 181.937109,71.5878906 181.937109,70.6855469 L181.937109,70.6855469 L181.937109,68.6816406 C181.937109,67.7675781 181.890234,67.0234375 181.796484,66.4492188 L181.796484,66.4492188 L183.659766,66.4492188 L183.659766,64.2167969 C183.659766,62.0371094 182.511328,60.9472656 180.214453,60.9472656 L180.214453,60.9472656 L169.034766,60.9472656 L169.034766,59.9804688 L168.648047,59.9804688 C170.581641,59.4296875 171.800391,58.4335938 172.304297,56.9921875 L172.304297,56.9921875 L175.819922,56.9921875 L175.819922,60.0859375 L179.071875,60.0859375 L179.071875,56.9921875 L183.659766,56.9921875 L183.659766,53.8632812 L173.060156,53.8632812 L173.183203,52.6328125 L169.825781,52.6328125 C169.673438,54.2851562 169.415625,55.3925781 169.052344,55.9550781 C168.794531,56.3535156 168.314063,56.6347656 167.610938,56.7988281 L167.610938,56.7988281 L167.610938,59.9804688 L165.782813,59.9804688 L165.782813,60.9472656 L154.128516,60.9472656 C153.261328,60.9472656 152.534766,61.2460938 151.948828,61.84375 C151.433203,62.3710938 151.175391,63.0742188 151.175391,63.953125 L151.175391,63.953125 L151.175391,66.4492188 L153.583594,66.4492188 C153.314063,66.7890625 153.144141,67.0410156 153.073828,67.2050781 C152.909766,67.6035156 152.827734,68.1953125 152.827734,68.9804688 L152.827734,68.9804688 L152.827734,79.7207031 C152.827734,80.8105469 153.261328,81.6425781 154.128516,82.2167969 C154.515234,82.4628906 155.282813,82.5859375 156.43125,82.5859375 L156.43125,82.5859375 L179.159766,82.5859375 Z M162.653906,60.0859375 L162.653906,56.9921875 L167.276953,56.9921875 L167.276953,53.8632812 L156.659766,53.8632812 L156.800391,52.6328125 L153.425391,52.6328125 C153.273047,54.34375 153.003516,55.4628906 152.616797,55.9902344 C152.323828,56.4003906 151.843359,56.6757812 151.175391,56.8164062 L151.175391,56.8164062 L151.175391,60.0859375 C152.370703,59.9804688 153.325781,59.7050781 154.040625,59.2597656 C154.74375,58.8261719 155.376563,58.0703125 155.939063,56.9921875 L155.939063,56.9921875 L159.401953,56.9921875 L159.401953,60.0859375 L162.653906,60.0859375 Z M154.427344,65.7285156 L154.409766,65.1660156 C154.398047,64.7207031 154.579687,64.3808594 154.954687,64.1464844 C155.142187,64.0175781 155.687109,63.953125 156.589453,63.953125 L156.589453,63.953125 L179.511328,63.953125 C179.628516,63.9765625 179.751562,64.0351562 179.880469,64.1289062 C180.173437,64.328125 180.325781,64.6328125 180.3375,65.0429688 L180.3375,65.0429688 L180.355078,65.5 L155.833594,65.5 C155.517187,65.5 155.048437,65.5761719 154.427344,65.7285156 L154.427344,65.7285156 Z M177.173438,70.2285156 L156.185156,70.2285156 L156.185156,69.4726562 C156.185156,69.1328125 156.232031,68.9042969 156.325781,68.7871094 C156.454688,68.6230469 156.888281,68.5410156 157.626563,68.5410156 L157.626563,68.5410156 L177.173438,68.5410156 C177.7125,68.5410156 178.040625,68.5761719 178.157813,68.6464844 C178.36875,68.7753906 178.474219,68.9863281 178.474219,69.2792969 L178.474219,69.2792969 L178.474219,69.5605469 C178.474219,69.8417969 178.386328,70.0292969 178.210547,70.1230469 C178.058203,70.1933594 177.7125,70.2285156 177.173438,70.2285156 L177.173438,70.2285156 Z M177.085547,79.720122 L157.890234,79.7207031 C157.046484,79.7207031 156.566016,79.6796875 156.448828,79.5976562 C156.273047,79.46875 156.185156,79.1816406 156.185156,78.7363281 L156.185156,78.7363281 L156.185156,77.4707031 L177.648047,77.4707031 C178.198828,77.4707031 178.474219,77.7402344 178.474219,78.2792969 L178.474219,78.2792969 L178.474219,78.859375 C178.474219,79.2578125 178.362891,79.5214844 178.140234,79.6503906 C178.046484,79.6972656 177.630469,79.7207031 176.892188,79.7207031 L177.085547,79.720122 Z M235.877344,82.6386719 L235.877344,79.3867188 L226.771875,79.3867188 L226.771875,75.625 L235.226953,75.625 L235.226953,72.3730469 L226.771875,72.3730469 L226.771875,69.5078125 L232.379297,69.4902344 C233.211328,69.4902344 233.902734,69.2089844 234.453516,68.6464844 C235.027734,68.0605469 235.314844,67.2753906 235.314844,66.2910156 L235.314844,66.2910156 L235.314844,55.9375 C235.314844,54.90625 235.045312,54.1328125 234.50625,53.6171875 C233.885156,53.03125 232.859766,52.7382812 231.430078,52.7382812 L231.430078,52.7382812 L217.9125,52.7382812 C216.963281,52.7382812 216.207422,53.0195312 215.644922,53.5820312 C215.047266,54.1796875 214.748437,55.0703125 214.748437,56.2539062 L214.748437,56.2539062 L214.748437,65.78125 C214.748437,66.2851562 214.766016,66.6835938 214.801172,66.9765625 C214.859766,67.4804688 215.070703,67.9609375 215.433984,68.4179688 C216.019922,69.1328125 216.816797,69.4902344 217.824609,69.4902344 L217.824609,69.4902344 L223.519922,69.5078125 L223.519922,72.3730469 L215.082422,72.3730469 L215.082422,75.625 L223.519922,75.625 L223.519922,79.3867188 L214.203516,79.3867188 L214.203516,82.6386719 L235.877344,82.6386719 Z M212.498437,81.7421875 L212.498437,78.4902344 L209.510156,78.4902344 L209.510156,68.3476562 L212.498437,68.3476562 L212.498437,65.1660156 L209.510156,65.1660156 L209.510156,56.8691406 L212.498437,56.8691406 L212.498437,53.6171875 L203.392969,53.6171875 L203.392969,56.8691406 L206.258203,56.8691406 L206.258203,65.1660156 L203.392969,65.1660156 L203.375391,68.3652344 L206.258203,68.3476562 L206.258203,78.4902344 L203.392969,78.4902344 L203.392969,81.7421875 L212.498437,81.7421875 Z M232.133203,59.4707031 L226.771875,59.4707031 L226.771875,55.9902344 L230.375391,55.9550781 C231.558984,55.9550781 232.144922,56.4179688 232.133203,57.34375 L232.133203,57.34375 L232.133203,59.4707031 Z M223.519922,59.4707031 L218.000391,59.4707031 L218.000391,57.34375 C218.000391,56.8515625 218.088281,56.5175781 218.264062,56.3417969 C218.498437,56.1074219 218.861719,55.9902344 219.353906,55.9902344 L219.353906,55.9902344 L223.519922,55.9902344 L223.519922,59.4707031 Z M223.519922,66.203125 L219.266016,66.203125 C218.785547,66.203125 218.457422,66.0976562 218.281641,65.8867188 C218.094141,65.6757812 218.000391,65.2539062 218.000391,64.6210938 L218.000391,64.6210938 L218.000391,62.7050781 L223.519922,62.7050781 L223.519922,66.203125 Z M230.691797,66.203125 L226.771875,66.203125 L226.771875,62.7050781 L232.133203,62.7050781 L232.133203,64.7089844 C232.144922,65.2597656 232.045313,65.6523438 231.834375,65.8867188 C231.646875,66.0976562 231.266016,66.203125 230.691797,66.203125 L230.691797,66.203125 Z M271.2375,82.5332031 C272.022656,82.5332031 272.719922,82.2402344 273.329297,81.6542969 C273.903516,81.1152344 274.190625,80.3359375 274.190625,79.3164062 L274.190625,79.3164062 L274.190625,72.7246094 L283.05,72.7246094 C284.878125,72.7246094 286.225781,72.296875 287.092969,71.4414062 C287.714062,70.84375 288.024609,70.0175781 288.024609,68.9628906 C288.024609,68.5878906 287.983594,68.1894531 287.901562,67.7675781 L287.901562,67.7675781 L287.110547,63.7949219 L283.823437,63.7949219 L284.508984,66.9941406 C284.579297,67.3222656 284.614453,67.5742188 284.614453,67.75 C284.614453,68.2070312 284.438672,68.6171875 284.087109,68.9804688 C283.770703,69.3085938 283.348828,69.4726562 282.821484,69.4726562 L282.821484,69.4726562 L260.567578,69.4375 C269.825391,65.6054688 276.481641,63.0097656 280.536328,61.6503906 C281.813672,61.2285156 283.313672,61.0175781 285.036328,61.0175781 C285.165234,61.0175781 285.428906,61.0234375 285.827344,61.0351562 L285.827344,61.0351562 L285.827344,57.8359375 C284.467969,57.8828125 283.413281,57.9472656 282.663281,58.0292969 C281.385937,58.1816406 279.803906,58.6035156 277.917187,59.2949219 C276.323437,59.8808594 273.815625,60.7890625 270.39375,62.0195312 L270.39375,62.0195312 L261.182812,62.0195312 L271.501172,56.3242188 L287.708203,56.3242188 L287.708203,53.0722656 L256.05,53.0722656 L256.05,56.3242188 L264.839062,56.3242188 L259.372266,59.2070312 C257.848828,60.015625 256.905469,60.6894531 256.542187,61.2285156 C256.260937,61.6386719 256.120312,62.078125 256.120312,62.546875 C256.120312,64.3867188 257.866406,65.3066406 261.358594,65.3066406 C259.108594,66.0800781 257.637891,66.7480469 256.946484,67.3105469 C256.219922,67.8964844 255.856641,68.640625 255.856641,69.5429688 C255.856641,70.2929688 256.149609,70.9609375 256.735547,71.546875 C257.532422,72.3320312 258.745312,72.7246094 260.374219,72.7246094 L260.374219,72.7246094 L270.938672,72.7070312 L270.95625,77.9628906 C270.967969,78.8417969 270.680859,79.28125 270.094922,79.28125 L270.094922,79.28125 L265.260937,79.28125 L265.260937,82.5332031 L271.2375,82.5332031 Z M255.592969,82.4804688 C256.225781,82.46875 256.712109,82.4101562 257.051953,82.3046875 C258.680859,81.8007812 259.723828,80.6875 260.180859,78.9648438 C260.555859,77.5234375 260.813672,75.953125 260.954297,74.2539062 L260.954297,74.2539062 L257.7375,74.2539062 C257.538281,76.3632812 257.286328,77.7695312 256.981641,78.4726562 C256.770703,78.9882812 256.307812,79.2519531 255.592969,79.2636719 L255.592969,79.2636719 L255.592969,82.4804688 Z M288.024609,82.4804688 L288.024609,79.2636719 C287.227734,79.2050781 286.712109,78.859375 286.477734,78.2265625 C286.266797,77.6757812 286.067578,76.3515625 285.880078,74.2539062 L285.880078,74.2539062 L282.628125,74.2539062 C282.897656,77.21875 283.360547,79.2402344 284.016797,80.3183594 C284.872266,81.7246094 286.208203,82.4453125 288.024609,82.4804688 L288.024609,82.4804688 Z M340.189453,82.7617188 L340.189453,79.5273438 L337.833984,79.5273438 C337.341797,79.5273438 337.025391,79.4511719 336.884766,79.2988281 C336.697266,79.0996094 336.603516,78.7304688 336.603516,78.1914062 L336.603516,78.1914062 L336.603516,67.4335938 C337.775391,67.2109375 338.619141,66.8183594 339.134766,66.2558594 C339.673828,65.6582031 339.943359,64.7910156 339.943359,63.6542969 C339.943359,63.2207031 339.914062,62.8457031 339.855469,62.5292969 L339.855469,62.5292969 L339.292969,59.8222656 L336.216797,59.8222656 L336.919922,62.4414062 C336.955078,62.5820312 336.972656,62.7167969 336.972656,62.8457031 C336.972656,63.9121094 336.410156,64.4453125 335.285156,64.4453125 L335.285156,64.4453125 L324.949219,64.4453125 C324.398438,64.4453125 324.070312,64.4160156 323.964844,64.3574219 C323.777344,64.2519531 323.683594,64.0761719 323.683594,63.8300781 C323.683594,63.6308594 323.730469,63.4082031 323.824219,63.1621094 L323.824219,63.1621094 L325.951172,57.7128906 L340.189453,57.7128906 L340.189453,54.4785156 L331.857422,54.4785156 L331.857422,52.7558594 L328.605469,52.7558594 L328.605469,54.4785156 L320.238281,54.4785156 L320.238281,57.7128906 L322.453125,57.7128906 L320.783203,62.3535156 C320.607422,62.8339844 320.519531,63.34375 320.519531,63.8828125 C320.519531,65.1132812 321,66.0742188 321.960938,66.765625 C322.617188,67.234375 323.443359,67.4921875 324.439453,67.5390625 L324.439453,67.5390625 L323.824219,74.3066406 C323.695312,75.7128906 323.314453,76.8964844 322.681641,77.8574219 C322.318359,78.3964844 321.644531,78.8945312 320.660156,79.3515625 L320.660156,79.3515625 L320.660156,82.65625 C321.679688,82.4335938 322.494141,82.1523438 323.103516,81.8125 C324.416016,81.0859375 325.423828,79.9902344 326.126953,78.5253906 C326.654297,77.4121094 327.017578,75.7070312 327.216797,73.4101562 L327.216797,73.4101562 L327.726562,67.5390625 L333.351562,67.5390625 L333.351562,79.7558594 C333.351562,80.8457031 333.820312,81.71875 334.757812,82.375 C335.121094,82.6328125 335.894531,82.7617188 337.078125,82.7617188 L337.078125,82.7617188 L340.189453,82.7617188 Z M317.988281,76.2226562 L317.988281,73.0585938 L311.800781,73.0585938 L318.568359,61.1933594 L314.595703,61.1933594 L313.804688,62.5292969 L311.660156,62.5292969 L316.880859,52.9667969 L312.996094,52.9667969 L308.654297,60.9648438 C308.056641,62.0546875 307.757812,62.9628906 307.757812,63.6894531 C307.757812,64.2285156 307.886719,64.6679688 308.144531,65.0078125 C308.519531,65.5 309.076172,65.7460938 309.814453,65.7460938 L309.814453,65.7460938 L311.976562,65.7460938 L309.445312,70.3339844 C308.425781,72.1738281 307.916016,73.4511719 307.916016,74.1660156 C307.916016,75.5371094 308.853516,76.2226562 310.728516,76.2226562 L310.728516,76.2226562 L317.988281,76.2226562 Z M318.410156,82.65625 L318.410156,79.3515625 L308.039062,79.3515625 L308.039062,82.65625 L318.410156,82.65625 Z" id="path-1"></path>
    </defs>
    <g id="页面-1" stroke="none" stroke-width="1" fill="none" fill-rule="evenodd">
        <g id="login02备份-13" transform="translate(-46.000000, -52.000000)" fill="#FFFFFF" fill-rule="nonzero">
            <g id="终端管理系统">
                <use xlink:href="#path-1"></use>
                <use xlink:href="#path-1"></use>
            </g>
        </g>
    </g>
</svg>