<?xml version="1.0" encoding="UTF-8"?>
<svg width="139px" height="21px" viewBox="0 0 139 21" version="1.1" xmlns="http://www.w3.org/2000/svg" xmlns:xlink="http://www.w3.org/1999/xlink">
    <title>终端管理系统</title>
    <g id="页面-1" stroke="none" stroke-width="1" fill="none" fill-rule="evenodd">
        <g id="画板" transform="translate(-21.000000, -24.000000)" fill="#2D354A" fill-rule="nonzero">
            <path d="M27.9101562,40.0078125 L27.9101562,37.8398438 L23.796875,37.8398438 L28.25,29.9765625 L25.6132812,29.9765625 L25.0859375,30.8554688 L23.65625,30.8554688 L27.125,24.5039062 L24.5703125,24.5039062 L21.6875,29.7421875 C21.25,30.5234375 21.03125,31.171875 21.03125,31.6875 C21.03125,32.5625 21.5898438,33.0039062 22.7070312,33.0117188 L22.7070312,33.0117188 L23.8671875,33.0234375 L21.5820312,37.1367188 C21.2851562,37.6601562 21.1367188,38.1796875 21.1367188,38.6953125 C21.1367188,39.0078125 21.2382812,39.2734375 21.4414062,39.4921875 C21.7539062,39.8359375 22.421875,40.0078125 23.4453125,40.0078125 L23.4453125,40.0078125 L27.9101562,40.0078125 Z M42.8046875,35.7070312 L42.8046875,33.6328125 L42.8046875,33.6328125 L42.5,33.6328125 C41.90625,33.6328125 41.109375,33.5117188 40.109375,33.2695312 C39.6015625,33.1445312 39.0703125,32.9648438 38.515625,32.7304688 L38.515625,32.7304688 L41.1992188,30.6445312 C42.2851562,29.8007812 42.828125,28.8984375 42.828125,27.9375 C42.828125,27.2578125 42.5390625,26.6953125 41.9609375,26.25 C41.40625,25.828125 40.640625,25.6210938 39.6640625,25.6289062 L39.6640625,25.6289062 L33.5703125,25.640625 C33.6484375,25.21875 33.7148438,24.8632812 33.7695312,24.5742188 L33.7695312,24.5742188 L31.5195312,24.5742188 C31.2851562,25.6132812 31.0195312,26.453125 30.7226562,27.09375 C30.4257812,27.71875 30.0273438,28.28125 29.5273438,28.78125 L29.5273438,28.78125 L29.5273438,31.2773438 C29.9023438,31.0976562 30.453125,30.7382812 31.1796875,30.1992188 L31.1796875,30.1992188 L31.8828125,30.75 L32.8085938,31.4882812 L33.8164062,32.2851562 L34.2734375,32.6367188 C33.5,32.9570312 32.7265625,33.1757812 31.953125,33.2929688 C31.3203125,33.3867188 30.5117188,33.4609375 29.5273438,33.515625 L29.5273438,33.515625 L29.5273438,35.6484375 C30.6757812,35.578125 31.6367188,35.4765625 32.4101562,35.34375 C33.6757812,35.140625 35.0273438,34.6992188 36.4648438,34.0195312 C38.4179688,35.0742188 40.53125,35.6367188 42.8046875,35.7070312 L42.8046875,35.7070312 Z M36.453125,31.5234375 C35.453125,30.859375 34.7695312,30.3632812 34.4023438,30.0351562 L34.4023438,30.0351562 L31.3554688,30.0117188 C31.8945312,29.4101562 32.3242188,28.7929688 32.6445312,28.1601562 C32.6835938,28.0898438 32.7382812,27.984375 32.8085938,27.84375 L32.8085938,27.84375 L39.3125,27.84375 C39.671875,27.84375 39.921875,27.9414062 40.0625,28.1367188 C40.1171875,28.2148438 40.1445312,28.2890625 40.1445312,28.359375 C40.1445312,28.828125 38.9140625,29.8828125 36.453125,31.5234375 Z M32.2929688,39.46875 L42.875,39.4570312 L42.875,37.2890625 L32.5507812,37.2890625 L32.2226562,37.3125 C31.8945312,37.3359375 31.71875,37.1445312 31.6953125,36.7382812 L31.6953125,36.7382812 L29.4804688,36.7382812 C29.7695312,38.5585938 30.7070312,39.46875 32.2929688,39.46875 L32.2929688,39.46875 Z M42.875,44.3554688 L42.875,42.1875 L32.609375,42.1875 C32.1953125,42.1875 31.9375,42.1601562 31.8359375,42.1054688 C31.7265625,42.0429688 31.671875,41.9453125 31.671875,41.8125 C31.671875,41.78125 31.6796875,41.734375 31.6953125,41.671875 L31.6953125,41.671875 L29.4804688,41.671875 C29.5507812,42.140625 29.65625,42.5195312 29.796875,42.8085938 C30.1171875,43.4726562 30.5664062,43.9179688 31.1445312,44.1445312 C31.4960938,44.2851562 32.0273438,44.3554688 32.7382812,44.3554688 L32.7382812,44.3554688 L42.875,44.3554688 Z M28.1328125,44.2382812 L28.1328125,42.0703125 L21.21875,42.0703125 L21.21875,44.2382812 L28.1328125,44.2382812 Z M63.9898438,31.2070312 C64.6773438,31.2070312 65.2046875,30.9804688 65.571875,30.5273438 C65.884375,30.1445312 66.040625,29.6445312 66.040625,29.0273438 L66.040625,29.0273438 L66.0523438,24.9492188 L63.884375,24.9492188 L63.8960938,27.9375 C63.8960938,28.328125 63.8492188,28.6015625 63.7554688,28.7578125 C63.6617188,28.9375 63.4234375,29.0273438 63.040625,29.0273438 L63.040625,29.0273438 L60.790625,29.0390625 L60.790625,24.5859375 L58.634375,24.5859375 L58.634375,29.0390625 L56.1382813,29.0273438 C55.9195313,29.0273438 55.759375,28.9570312 55.6578125,28.8164062 C55.5953125,28.7226562 55.5640625,28.5 55.5640625,28.1484375 L55.5640625,28.1484375 L55.5640625,24.9492188 L53.3960938,24.9492188 L53.3960938,29.0039062 C53.3960938,29.5898438 53.4898438,30.0273438 53.6773438,30.3164062 C54.0757813,30.9101562 54.7632813,31.2070312 55.7398438,31.2070312 L55.7398438,31.2070312 L63.9898438,31.2070312 Z M52.4703125,28.3710938 L52.4703125,26.203125 L49.6460937,26.203125 L49.6460937,24.65625 L47.478125,24.65625 L47.478125,26.203125 L44.5484375,26.1796875 L44.5367187,28.3710938 L52.4703125,28.3710938 Z M47.3023437,41.015625 L47.3023437,29.7773438 L45.275,29.7773438 L45.275,41.015625 L47.3023437,41.015625 Z M51.4507812,41.015625 L51.4507812,29.7773438 L49.4234375,29.7773438 L49.4234375,41.015625 L51.4507812,41.015625 Z M59.05625,44.484375 L59.05625,37.8164062 L60.603125,37.8164062 L60.603125,44.484375 L62.5953125,44.484375 L62.5953125,37.8164062 L63.4507813,37.8164062 C63.5992188,37.8164062 63.7320313,37.8710938 63.8492188,37.9804688 C63.9664063,38.0976562 64.025,38.2304688 64.025,38.3789062 L64.025,38.3789062 L64.025,41.625 C64.025,41.90625 63.9546875,42.0898438 63.8140625,42.1757812 C63.696875,42.2617188 63.4859375,42.3046875 63.18125,42.3046875 L63.18125,42.3046875 L63.18125,44.4375 L64.0835938,44.4375 C64.7476563,44.4375 65.2671875,44.25 65.6421875,43.875 C66.009375,43.5078125 66.1929688,43 66.1929688,42.3515625 L66.1929688,42.3515625 L66.1929688,37.5117188 C66.1929688,37.0273438 65.9898438,36.59375 65.5835938,36.2109375 C65.1851563,35.8359375 64.7164063,35.6484375 64.1773438,35.6484375 L64.1773438,35.6484375 L60.8960938,35.6484375 L60.8960938,34.4296875 L66.228125,34.4296875 L66.228125,32.2734375 L53.4429688,32.2734375 L53.4429688,34.4296875 L58.728125,34.4296875 L58.728125,35.6484375 L55.4117188,35.6484375 C54.8726563,35.6484375 54.4039063,35.8632812 54.0054688,36.2929688 C53.6382813,36.6835938 53.4546875,37.125 53.4546875,37.6171875 L53.4546875,37.6171875 L53.478125,44.4375 L55.6460938,44.4375 L55.6460938,38.6835938 C55.6460938,38.0976562 55.8101563,37.8085938 56.1382813,37.8164062 L56.1382813,37.8164062 L57.0289063,37.8164062 L57.0289063,44.484375 L59.05625,44.484375 Z M52.3414062,44.4726562 L52.3414062,42.2695312 L44.571875,42.2695312 L44.571875,44.4726562 L52.3414062,44.4726562 Z M86.6398437,44.390625 C87.5070312,44.390625 88.0539062,44.2382812 88.2804687,43.9335938 C88.4210937,43.7304688 88.4914062,43.390625 88.4914062,42.9140625 L88.4914062,42.9140625 L88.4914062,40.6523438 C88.4914062,40.2226562 88.45625,39.9296875 88.3859375,39.7734375 C88.315625,39.609375 88.1710937,39.4570312 87.9523437,39.3164062 C87.6867187,39.1445312 86.70625,39.0585938 85.0109375,39.0585938 L85.0109375,39.0585938 L71.3234375,39.0585938 L71.3234375,38.0976562 L86.4875,38.0976562 C87.3390625,38.0976562 87.9015625,37.9570312 88.175,37.6757812 C88.3859375,37.4648438 88.4914062,37.0585938 88.4914062,36.4570312 L88.4914062,36.4570312 L88.4914062,35.1210938 C88.4914062,34.5117188 88.4601562,34.015625 88.3976562,33.6328125 L88.3976562,33.6328125 L89.6398437,33.6328125 L89.6398437,32.1445312 C89.6398437,30.6914062 88.8742187,29.9648438 87.3429687,29.9648438 L87.3429687,29.9648438 L79.8898437,29.9648438 L79.8898437,29.3203125 L79.6320312,29.3203125 C80.9210937,28.953125 81.7335937,28.2890625 82.0695312,27.328125 L82.0695312,27.328125 L84.4132812,27.328125 L84.4132812,29.390625 L86.58125,29.390625 L86.58125,27.328125 L89.6398437,27.328125 L89.6398437,25.2421875 L82.5734375,25.2421875 L82.6554687,24.421875 L80.4171875,24.421875 C80.315625,25.5234375 80.14375,26.2617188 79.9015625,26.6367188 C79.7296875,26.9023438 79.409375,27.0898438 78.940625,27.1992188 L78.940625,27.1992188 L78.940625,29.3203125 L77.721875,29.3203125 L77.721875,29.9648438 L69.9523437,29.9648438 C69.3742187,29.9648438 68.8898437,30.1640625 68.4992187,30.5625 C68.1554687,30.9140625 67.9835937,31.3828125 67.9835937,31.96875 L67.9835937,31.96875 L67.9835937,33.6328125 L69.5890625,33.6328125 C69.409375,33.859375 69.2960937,34.0273438 69.2492187,34.1367188 C69.1398437,34.4023438 69.0851562,34.796875 69.0851562,35.3203125 L69.0851562,35.3203125 L69.0851562,42.4804688 C69.0851562,43.2070312 69.3742187,43.7617188 69.9523437,44.1445312 C70.2101562,44.3085938 70.721875,44.390625 71.4875,44.390625 L71.4875,44.390625 L86.6398437,44.390625 Z M75.6359375,29.390625 L75.6359375,27.328125 L78.7179687,27.328125 L78.7179687,25.2421875 L71.6398437,25.2421875 L71.7335937,24.421875 L69.4835937,24.421875 C69.3820312,25.5625 69.2023437,26.3085938 68.9445312,26.6601562 C68.7492187,26.9335938 68.4289062,27.1171875 67.9835937,27.2109375 L67.9835937,27.2109375 L67.9835937,29.390625 C68.7804687,29.3203125 69.4171875,29.1367188 69.89375,28.8398438 C70.3625,28.5507812 70.784375,28.046875 71.159375,27.328125 L71.159375,27.328125 L73.4679687,27.328125 L73.4679687,29.390625 L75.6359375,29.390625 Z M70.1515625,33.1523438 L70.1398437,32.7773438 C70.1320312,32.4804688 70.253125,32.2539062 70.503125,32.0976562 C70.628125,32.0117188 70.9914062,31.96875 71.5929687,31.96875 L71.5929687,31.96875 L86.8742187,31.96875 C86.9523437,31.984375 87.034375,32.0234375 87.1203125,32.0859375 C87.315625,32.21875 87.4171875,32.421875 87.425,32.6953125 L87.425,32.6953125 L87.4367187,33 L71.0890625,33 C70.878125,33 70.565625,33.0507812 70.1515625,33.1523438 L70.1515625,33.1523438 Z M85.315625,36.1523438 L71.3234375,36.1523438 L71.3234375,35.6484375 C71.3234375,35.421875 71.3546875,35.2695312 71.4171875,35.1914062 C71.503125,35.0820312 71.7921875,35.0273438 72.284375,35.0273438 L72.284375,35.0273438 L85.315625,35.0273438 C85.675,35.0273438 85.89375,35.0507812 85.971875,35.0976562 C86.1125,35.1835938 86.1828125,35.3242188 86.1828125,35.5195312 L86.1828125,35.5195312 L86.1828125,35.7070312 C86.1828125,35.8945312 86.1242187,36.0195312 86.0070312,36.0820312 C85.9054687,36.1289062 85.675,36.1523438 85.315625,36.1523438 L85.315625,36.1523438 Z M85.128125,42.4804688 L72.4601562,42.4804688 C71.8976562,42.4804688 71.5773437,42.453125 71.4992187,42.3984375 C71.3820312,42.3125 71.3234375,42.1210938 71.3234375,41.8242188 L71.3234375,41.8242188 L71.3234375,40.9804688 L85.6320312,40.9804688 C85.9992187,40.9804688 86.1828125,41.1601562 86.1828125,41.5195312 L86.1828125,41.5195312 L86.1828125,41.90625 C86.1828125,42.171875 86.1085937,42.3476562 85.9601562,42.4335938 C85.8976562,42.4648438 85.6203125,42.4804688 85.128125,42.4804688 L85.128125,42.4804688 Z M113.051562,44.4257812 L113.051562,42.2578125 L106.98125,42.2578125 L106.98125,39.75 L112.617969,39.75 L112.617969,37.5820312 L106.98125,37.5820312 L106.98125,35.671875 L110.719531,35.6601562 C111.274219,35.6601562 111.735156,35.4726562 112.102344,35.0976562 C112.485156,34.7070312 112.676562,34.1835938 112.676562,33.5273438 L112.676562,33.5273438 L112.676562,26.625 C112.676562,25.9375 112.496875,25.421875 112.1375,25.078125 C111.723437,24.6875 111.039844,24.4921875 110.086719,24.4921875 L110.086719,24.4921875 L101.075,24.4921875 C100.442187,24.4921875 99.9382812,24.6796875 99.5632812,25.0546875 C99.1648437,25.453125 98.965625,26.046875 98.965625,26.8359375 L98.965625,26.8359375 L98.965625,33.1875 C98.965625,33.5234375 98.9773437,33.7890625 99.0007812,33.984375 C99.0398437,34.3203125 99.1804687,34.640625 99.4226562,34.9453125 C99.8132812,35.421875 100.344531,35.6601562 101.016406,35.6601562 L101.016406,35.6601562 L104.813281,35.671875 L104.813281,37.5820312 L99.1882812,37.5820312 L99.1882812,39.75 L104.813281,39.75 L104.813281,42.2578125 L98.6023437,42.2578125 L98.6023437,44.4257812 L113.051562,44.4257812 Z M97.465625,43.828125 L97.465625,41.6601562 L95.4734375,41.6601562 L95.4734375,34.8984375 L97.465625,34.8984375 L97.465625,32.7773438 L95.4734375,32.7773438 L95.4734375,27.2460938 L97.465625,27.2460938 L97.465625,25.078125 L91.3953125,25.078125 L91.3953125,27.2460938 L93.3054687,27.2460938 L93.3054687,32.7773438 L91.3953125,32.7773438 L91.3835937,34.9101562 L93.3054687,34.8984375 L93.3054687,41.6601562 L91.3953125,41.6601562 L91.3953125,43.828125 L97.465625,43.828125 Z M110.555469,28.9804688 L106.98125,28.9804688 L106.98125,26.6601562 L109.383594,26.6367188 C110.172656,26.6367188 110.563281,26.9453125 110.555469,27.5625 L110.555469,27.5625 L110.555469,28.9804688 Z M104.813281,28.9804688 L101.133594,28.9804688 L101.133594,27.5625 C101.133594,27.234375 101.192187,27.0117188 101.309375,26.8945312 C101.465625,26.7382812 101.707812,26.6601562 102.035937,26.6601562 L102.035937,26.6601562 L104.813281,26.6601562 L104.813281,28.9804688 Z M104.813281,33.46875 L101.977344,33.46875 C101.657031,33.46875 101.438281,33.3984375 101.321094,33.2578125 C101.196094,33.1171875 101.133594,32.8359375 101.133594,32.4140625 L101.133594,32.4140625 L101.133594,31.1367188 L104.813281,31.1367188 L104.813281,33.46875 Z M109.594531,33.46875 L106.98125,33.46875 L106.98125,31.1367188 L110.555469,31.1367188 L110.555469,32.4726562 C110.563281,32.8398438 110.496875,33.1015625 110.35625,33.2578125 C110.23125,33.3984375 109.977344,33.46875 109.594531,33.46875 L109.594531,33.46875 Z M125.225,44.3554688 C125.748437,44.3554688 126.213281,44.1601562 126.619531,43.7695312 C127.002344,43.4101562 127.19375,42.890625 127.19375,42.2109375 L127.19375,42.2109375 L127.19375,37.8164062 L133.1,37.8164062 C134.31875,37.8164062 135.217187,37.53125 135.795312,36.9609375 C136.209375,36.5625 136.416406,36.0117188 136.416406,35.3085938 C136.416406,35.0585938 136.389062,34.7929688 136.334375,34.5117188 L136.334375,34.5117188 L135.807031,31.8632812 L133.615625,31.8632812 L134.072656,33.9960938 C134.119531,34.2148438 134.142969,34.3828125 134.142969,34.5 C134.142969,34.8046875 134.025781,35.078125 133.791406,35.3203125 C133.580469,35.5390625 133.299219,35.6484375 132.947656,35.6484375 L132.947656,35.6484375 L118.111719,35.625 C124.283594,33.0703125 128.721094,31.3398438 131.424219,30.4335938 C132.275781,30.1523438 133.275781,30.0117188 134.424219,30.0117188 C134.510156,30.0117188 134.685937,30.015625 134.951562,30.0234375 L134.951562,30.0234375 L134.951562,27.890625 C134.045312,27.921875 133.342187,27.9648438 132.842187,28.0195312 C131.990625,28.1210938 130.935937,28.4023438 129.678125,28.8632812 C128.615625,29.2539062 126.94375,29.859375 124.6625,30.6796875 L124.6625,30.6796875 L118.521875,30.6796875 L125.400781,26.8828125 L136.205469,26.8828125 L136.205469,24.7148438 L115.1,24.7148438 L115.1,26.8828125 L120.959375,26.8828125 L117.314844,28.8046875 C116.299219,29.34375 115.670312,29.7929688 115.428125,30.1523438 C115.240625,30.4257812 115.146875,30.71875 115.146875,31.03125 C115.146875,32.2578125 116.310937,32.8710938 118.639062,32.8710938 C117.139062,33.3867188 116.158594,33.8320312 115.697656,34.2070312 C115.213281,34.5976562 114.971094,35.09375 114.971094,35.6953125 C114.971094,36.1953125 115.166406,36.640625 115.557031,37.03125 C116.088281,37.5546875 116.896875,37.8164062 117.982812,37.8164062 L117.982812,37.8164062 L125.025781,37.8046875 L125.0375,41.3085938 C125.045312,41.8945312 124.853906,42.1875 124.463281,42.1875 L124.463281,42.1875 L121.240625,42.1875 L121.240625,44.3554688 L125.225,44.3554688 Z M114.795312,44.3203125 C115.217187,44.3125 115.541406,44.2734375 115.767969,44.203125 C116.853906,43.8671875 117.549219,43.125 117.853906,41.9765625 C118.103906,41.015625 118.275781,39.96875 118.369531,38.8359375 L118.369531,38.8359375 L116.225,38.8359375 C116.092187,40.2421875 115.924219,41.1796875 115.721094,41.6484375 C115.580469,41.9921875 115.271875,42.1679688 114.795312,42.1757812 L114.795312,42.1757812 L114.795312,44.3203125 Z M136.416406,44.3203125 L136.416406,42.1757812 C135.885156,42.1367188 135.541406,41.90625 135.385156,41.484375 C135.244531,41.1171875 135.111719,40.234375 134.986719,38.8359375 L134.986719,38.8359375 L132.81875,38.8359375 C132.998437,40.8125 133.307031,42.1601562 133.744531,42.8789062 C134.314844,43.8164062 135.205469,44.296875 136.416406,44.3203125 L136.416406,44.3203125 Z M159.792969,44.5078125 L159.792969,42.3515625 L158.222656,42.3515625 C157.894531,42.3515625 157.683594,42.3007812 157.589844,42.1992188 C157.464844,42.0664062 157.402344,41.8203125 157.402344,41.4609375 L157.402344,41.4609375 L157.402344,34.2890625 C158.183594,34.140625 158.746094,33.8789062 159.089844,33.5039062 C159.449219,33.1054688 159.628906,32.5273438 159.628906,31.7695312 C159.628906,31.4804688 159.609375,31.2304688 159.570312,31.0195312 L159.570312,31.0195312 L159.195312,29.2148438 L157.144531,29.2148438 L157.613281,30.9609375 C157.636719,31.0546875 157.648438,31.1445312 157.648438,31.2304688 C157.648438,31.9414062 157.273438,32.296875 156.523438,32.296875 L156.523438,32.296875 L149.632812,32.296875 C149.265625,32.296875 149.046875,32.2773438 148.976562,32.2382812 C148.851562,32.1679688 148.789062,32.0507812 148.789062,31.8867188 C148.789062,31.7539062 148.820312,31.6054688 148.882812,31.4414062 L148.882812,31.4414062 L150.300781,27.8085938 L159.792969,27.8085938 L159.792969,25.6523438 L154.238281,25.6523438 L154.238281,24.5039062 L152.070312,24.5039062 L152.070312,25.6523438 L146.492188,25.6523438 L146.492188,27.8085938 L147.96875,27.8085938 L146.855469,30.9023438 C146.738281,31.2226562 146.679688,31.5625 146.679688,31.921875 C146.679688,32.7421875 147,33.3828125 147.640625,33.84375 C148.078125,34.15625 148.628906,34.328125 149.292969,34.359375 L149.292969,34.359375 L148.882812,38.8710938 C148.796875,39.8085938 148.542969,40.5976562 148.121094,41.2382812 C147.878906,41.5976562 147.429688,41.9296875 146.773438,42.234375 L146.773438,42.234375 L146.773438,44.4375 C147.453125,44.2890625 147.996094,44.1015625 148.402344,43.875 C149.277344,43.390625 149.949219,42.6601562 150.417969,41.6835938 C150.769531,40.9414062 151.011719,39.8046875 151.144531,38.2734375 L151.144531,38.2734375 L151.484375,34.359375 L155.234375,34.359375 L155.234375,42.5039062 C155.234375,43.2304688 155.546875,43.8125 156.171875,44.25 C156.414062,44.421875 156.929688,44.5078125 157.71875,44.5078125 L157.71875,44.5078125 L159.792969,44.5078125 Z M144.992188,40.1484375 L144.992188,38.0390625 L140.867188,38.0390625 L145.378906,30.1289062 L142.730469,30.1289062 L142.203125,31.0195312 L140.773438,31.0195312 L144.253906,24.6445312 L141.664062,24.6445312 L138.769531,29.9765625 C138.371094,30.703125 138.171875,31.3085938 138.171875,31.7929688 C138.171875,32.1523438 138.257812,32.4453125 138.429688,32.671875 C138.679688,33 139.050781,33.1640625 139.542969,33.1640625 L139.542969,33.1640625 L140.984375,33.1640625 L139.296875,36.2226562 C138.617188,37.4492188 138.277344,38.3007812 138.277344,38.7773438 C138.277344,39.6914062 138.902344,40.1484375 140.152344,40.1484375 L140.152344,40.1484375 L144.992188,40.1484375 Z M145.273438,44.4375 L145.273438,42.234375 L138.359375,42.234375 L138.359375,44.4375 L145.273438,44.4375 Z" id="终端管理系统"></path>
        </g>
    </g>
</svg>