<?xml version="1.0" encoding="UTF-8"?>
<svg width="24px" height="24px" viewBox="0 0 24 24" version="1.1" xmlns="http://www.w3.org/2000/svg" xmlns:xlink="http://www.w3.org/1999/xlink">
    <title>状态：开机</title>
    <defs>
        <linearGradient x1="-3.99791718%" y1="-9.57435989%" x2="78.8337326%" y2="90.5%" id="linearGradient-1">
            <stop stop-color="#A4C3DF" offset="0%"></stop>
            <stop stop-color="#6C7B8E" offset="100%"></stop>
        </linearGradient>
        <linearGradient x1="0%" y1="31.3271605%" x2="71.8318515%" y2="57.7795382%" id="linearGradient-2">
            <stop stop-color="#006FFF" offset="0%"></stop>
            <stop stop-color="#4BCDFF" offset="100%"></stop>
        </linearGradient>
        <linearGradient x1="12.6770764%" y1="31.7087257%" x2="81.6474537%" y2="16.8021552%" id="linearGradient-3">
            <stop stop-color="#FFFFFF" stop-opacity="0" offset="0%"></stop>
            <stop stop-color="#FFFFFF" stop-opacity="0.5" offset="100%"></stop>
        </linearGradient>
        <linearGradient x1="50%" y1="0%" x2="50%" y2="100%" id="linearGradient-4">
            <stop stop-color="#8AE438" offset="0%"></stop>
            <stop stop-color="#55A12F" offset="100%"></stop>
        </linearGradient>
    </defs>
    <g id="页面-1" stroke="none" stroke-width="1" fill="none" fill-rule="evenodd">
        <g id="状态：开机">
            <rect id="矩形" stroke="#979797" fill="#D8D8D8" opacity="0" x="0.5" y="0.5" width="22.1111111" height="23"></rect>
            <g id="编组-9" transform="translate(1.000000, 4.000000)">
                <g id="编组-8">
                    <g id="编组-7">
                        <g id="电脑" transform="translate(0.000000, 0.000406)">
                            <path d="M18.5702273,0 L1.42977273,0 C0.641363636,0 0,0.643536255 0,1.44125546 L0,12.9600733 C0,13.7548142 0.638409091,14.4013288 1.42977273,14.4013288 L8.57295455,14.4013288 L8.57295455,16.5617228 L5,16.5617228 C4.60590909,16.5617228 4.28659091,16.8836055 4.28659091,17.2808614 L4.28659091,18 L15.7136364,18 L15.7136364,17.2808614 C15.7136364,16.8836055 15.3943182,16.5617228 15,16.5617228 L11.4270455,16.5617228 L11.4270455,14.4013288 L18.5702273,14.4013288 C19.3586364,14.4013288 20,13.7577925 20,12.9600733 L20,1.44125546 C20,0.643536255 19.3586364,0 18.5702273,0 Z" id="路径" fill="url(#linearGradient-1)"></path>
                            <polygon id="路径" fill="url(#linearGradient-2)" fill-rule="nonzero" points="1 11.997 1 1 19 1 19 12 1 12"></polygon>
                        </g>
                        <path d="M5.196,14.401 L1.42977273,14.4017352 C0.638409091,14.4017352 -1.59872116e-14,13.7552207 -1.59872116e-14,12.9604798 L-1.59872116e-14,12.9604798 L-1.59872116e-14,1.44166192 C-1.59872116e-14,0.643942715 0.641363636,0.000406460551 1.42977273,0.000406460551 L1.42977273,0.000406460551 L13.511,1.15463195e-14 L5.196,14.401 Z" id="形状结合" fill="url(#linearGradient-3)"></path>
                    </g>
                    <g id="分组-63" transform="translate(11.000000, 7.000406)">
                        <circle id="椭圆形" fill="#FFFFFF" cx="5.5" cy="5.5" r="5.5"></circle>
                        <g id="播放" transform="translate(1.000000, 0.000000)" fill-rule="nonzero">
                            <rect id="矩形" fill="#000000" opacity="0" x="0" y="0" width="10" height="10"></rect>
                            <path d="M4.5,1 C2.01474531,1 0,3.01497039 0,5.50050274 C0,7.98603508 2.01474531,10 4.5,10 C6.98525469,10 9,7.98502961 9,5.49949726 C9,3.01396492 6.98424933,1 4.5,1 Z M6.25837802,5.66841694 L3.13572386,7.47223774 C3.00603217,7.54664283 2.8441689,7.45313373 2.8441689,7.30432354 L2.8441689,3.69668193 C2.8441689,3.54686627 3.00603217,3.45335717 3.13572386,3.52876774 L6.25837802,5.33158306 C6.38806971,5.40699363 6.38806971,5.59401184 6.25837802,5.66841694 Z" id="形状" fill="url(#linearGradient-4)"></path>
                        </g>
                    </g>
                </g>
                <path d="M4.71422958,2.50929147 L2.78569804,2.50929147 L2.78569803,2.50929147 C2.66736342,2.50929147 2.57143041,2.59471262 2.57141675,2.70009298 L2.57141675,5.74597497 L2.57141675,5.74597496 C2.57141675,5.88649353 2.44350068,6.00040646 2.28570838,6.00040646 C2.12791607,6.00040646 2,5.88649353 2,5.74597496 L2,2.70011509 L2,2.70009308 C2,2.31366585 2.35176789,2.00040646 2.78569803,2.00040646 C2.78570631,2.00040646 2.78571458,2.00040646 2.78572286,2.00040646 L4.71427922,2.00040646 L4.71427921,2.00040646 C4.87207847,2.00040646 5,2.11432425 5,2.25484901 C5,2.39537378 4.87207847,2.50929157 4.71427921,2.50929157 L4.71422958,2.50929147 Z" id="形状" fill="#FFFFFF" fill-rule="nonzero" opacity="0.575514294"></path>
            </g>
        </g>
    </g>
</svg>