<?xml version="1.0" encoding="UTF-8"?>
<svg width="294px" height="21px" viewBox="0 0 294 21" version="1.1" xmlns="http://www.w3.org/2000/svg" xmlns:xlink="http://www.w3.org/1999/xlink">
    <title>Terminalmanagementsystem</title>
    <defs>
        <path d="M52.35,123 L52.35,109.497 L57.642,109.497 L57.642,108.006 L45.357,108.006 L45.357,109.497 L50.649,109.497 L50.649,123 L52.35,123 Z M63.912,123.294 C65.319,123.294 66.474,122.874 67.377,122.076 C68.112,121.404 68.595,120.564 68.847,119.514 L67.167,119.514 C66.894,120.27 66.537,120.837 66.075,121.215 C65.529,121.656 64.794,121.887 63.912,121.887 C62.883,121.887 62.064,121.551 61.476,120.879 C60.888,120.207 60.573,119.262 60.489,118.044 L69.057,118.044 C69.015,116.154 68.595,114.663 67.797,113.613 C66.915,112.437 65.592,111.849 63.849,111.849 C62.274,111.849 61.035,112.416 60.111,113.55 C59.187,114.621 58.746,115.965 58.746,117.561 C58.746,119.325 59.208,120.711 60.174,121.761 C61.098,122.769 62.358,123.294 63.912,123.294 Z M67.314,116.742 L60.531,116.742 C60.636,115.671 60.972,114.831 61.56,114.201 C62.148,113.571 62.925,113.256 63.891,113.256 C65.949,113.256 67.104,114.411 67.314,116.742 Z M72.765,123 L72.765,117.246 C72.765,116.238 73.038,115.377 73.626,114.663 C74.193,113.907 74.907,113.55 75.747,113.55 C76.272,113.55 76.818,113.613 77.364,113.781 L77.364,112.101 C76.965,111.933 76.461,111.849 75.873,111.849 C75.117,111.849 74.466,112.08 73.899,112.542 C73.437,112.899 73.059,113.403 72.765,114.033 L72.765,112.143 L71.106,112.143 L71.106,123 L72.765,123 Z M80.526,123 L80.526,116.385 C80.526,115.524 80.778,114.789 81.282,114.201 C81.786,113.571 82.416,113.277 83.193,113.277 C84.852,113.277 85.692,114.222 85.692,116.154 L85.692,123 L87.372,123 L87.372,116.196 C87.372,115.314 87.603,114.621 88.107,114.075 C88.569,113.529 89.178,113.277 89.892,113.277 C90.816,113.277 91.488,113.508 91.908,114.012 C92.307,114.474 92.517,115.188 92.517,116.154 L92.517,123 L94.197,123 L94.197,115.881 C94.197,114.642 93.84,113.655 93.168,112.92 C92.454,112.206 91.551,111.849 90.417,111.849 C89.661,111.849 89.031,112.017 88.506,112.353 C87.918,112.668 87.414,113.193 86.994,113.907 C86.385,112.521 85.251,111.849 83.592,111.849 C82.374,111.849 81.345,112.416 80.526,113.592 L80.526,112.143 L78.846,112.143 L78.846,123 L80.526,123 Z M98.262,110.547 C98.619,110.547 98.913,110.421 99.165,110.19 C99.417,109.938 99.543,109.644 99.543,109.287 C99.543,108.909 99.417,108.615 99.165,108.405 C98.913,108.153 98.619,108.048 98.262,108.048 C97.905,108.048 97.611,108.153 97.359,108.405 C97.107,108.615 97.002,108.909 97.002,109.287 C97.002,109.644 97.107,109.938 97.359,110.19 C97.611,110.421 97.905,110.547 98.262,110.547 Z M99.102,123 L99.102,112.143 L97.422,112.143 L97.422,123 L99.102,123 Z M104.007,123 L104.007,116.448 C104.07,115.461 104.385,114.684 104.973,114.096 C105.519,113.55 106.17,113.277 106.926,113.277 C108.816,113.277 109.782,114.327 109.782,116.448 L109.782,123 L111.462,123 L111.462,116.322 C111.462,113.34 110.097,111.849 107.409,111.849 C106.695,111.849 106.044,112.017 105.456,112.353 C104.868,112.668 104.385,113.13 104.007,113.739 L104.007,112.143 L102.327,112.143 L102.327,123 L104.007,123 Z M117.333,123.294 C118.341,123.294 119.244,123.063 120.042,122.622 C120.714,122.244 121.281,121.761 121.701,121.173 L121.701,123 L123.276,123 L123.276,116.028 C123.276,114.768 122.94,113.781 122.31,113.067 C121.554,112.248 120.42,111.849 118.866,111.849 C117.564,111.849 116.535,112.101 115.737,112.605 C114.855,113.151 114.288,114.012 114.057,115.146 L115.716,115.272 C115.884,114.579 116.241,114.054 116.808,113.718 C117.312,113.382 117.963,113.235 118.761,113.235 C120.651,113.235 121.596,114.138 121.596,115.965 L121.596,116.532 L118.992,116.574 C117.354,116.595 116.094,116.91 115.212,117.498 C114.204,118.128 113.721,119.052 113.721,120.291 C113.721,121.173 114.057,121.908 114.729,122.475 C115.38,123.021 116.241,123.294 117.333,123.294 Z M117.69,121.971 C117.018,121.971 116.472,121.803 116.052,121.488 C115.632,121.152 115.443,120.753 115.443,120.249 C115.443,118.674 116.661,117.876 119.097,117.834 L121.596,117.792 L121.596,118.716 C121.596,119.556 121.197,120.312 120.42,120.963 C119.622,121.635 118.719,121.971 117.69,121.971 Z M127.95,123 L127.95,107.712 L126.291,107.712 L126.291,123 L127.95,123 Z M139.713,123 L139.713,116.385 C139.713,115.524 139.965,114.789 140.469,114.201 C140.973,113.571 141.603,113.277 142.38,113.277 C144.039,113.277 144.879,114.222 144.879,116.154 L144.879,123 L146.559,123 L146.559,116.196 C146.559,115.314 146.79,114.621 147.294,114.075 C147.756,113.529 148.365,113.277 149.079,113.277 C150.003,113.277 150.675,113.508 151.095,114.012 C151.494,114.474 151.704,115.188 151.704,116.154 L151.704,123 L153.384,123 L153.384,115.881 C153.384,114.642 153.027,113.655 152.355,112.92 C151.641,112.206 150.738,111.849 149.604,111.849 C148.848,111.849 148.218,112.017 147.693,112.353 C147.105,112.668 146.601,113.193 146.181,113.907 C145.572,112.521 144.438,111.849 142.779,111.849 C141.561,111.849 140.532,112.416 139.713,113.592 L139.713,112.143 L138.033,112.143 L138.033,123 L139.713,123 Z M159.255,123.294 C160.263,123.294 161.166,123.063 161.964,122.622 C162.636,122.244 163.203,121.761 163.623,121.173 L163.623,123 L165.198,123 L165.198,116.028 C165.198,114.768 164.862,113.781 164.232,113.067 C163.476,112.248 162.342,111.849 160.788,111.849 C159.486,111.849 158.457,112.101 157.659,112.605 C156.777,113.151 156.21,114.012 155.979,115.146 L157.638,115.272 C157.806,114.579 158.163,114.054 158.73,113.718 C159.234,113.382 159.885,113.235 160.683,113.235 C162.573,113.235 163.518,114.138 163.518,115.965 L163.518,116.532 L160.914,116.574 C159.276,116.595 158.016,116.91 157.134,117.498 C156.126,118.128 155.643,119.052 155.643,120.291 C155.643,121.173 155.979,121.908 156.651,122.475 C157.302,123.021 158.163,123.294 159.255,123.294 Z M159.612,121.971 C158.94,121.971 158.394,121.803 157.974,121.488 C157.554,121.152 157.365,120.753 157.365,120.249 C157.365,118.674 158.583,117.876 161.019,117.834 L163.518,117.792 L163.518,118.716 C163.518,119.556 163.119,120.312 162.342,120.963 C161.544,121.635 160.641,121.971 159.612,121.971 Z M169.557,123 L169.557,116.448 C169.62,115.461 169.935,114.684 170.523,114.096 C171.069,113.55 171.72,113.277 172.476,113.277 C174.366,113.277 175.332,114.327 175.332,116.448 L175.332,123 L177.012,123 L177.012,116.322 C177.012,113.34 175.647,111.849 172.959,111.849 C172.245,111.849 171.594,112.017 171.006,112.353 C170.418,112.668 169.935,113.13 169.557,113.739 L169.557,112.143 L167.877,112.143 L167.877,123 L169.557,123 Z M182.883,123.294 C183.891,123.294 184.794,123.063 185.592,122.622 C186.264,122.244 186.831,121.761 187.251,121.173 L187.251,123 L188.826,123 L188.826,116.028 C188.826,114.768 188.49,113.781 187.86,113.067 C187.104,112.248 185.97,111.849 184.416,111.849 C183.114,111.849 182.085,112.101 181.287,112.605 C180.405,113.151 179.838,114.012 179.607,115.146 L181.266,115.272 C181.434,114.579 181.791,114.054 182.358,113.718 C182.862,113.382 183.513,113.235 184.311,113.235 C186.201,113.235 187.146,114.138 187.146,115.965 L187.146,116.532 L184.542,116.574 C182.904,116.595 181.644,116.91 180.762,117.498 C179.754,118.128 179.271,119.052 179.271,120.291 C179.271,121.173 179.607,121.908 180.279,122.475 C180.93,123.021 181.791,123.294 182.883,123.294 Z M183.24,121.971 C182.568,121.971 182.022,121.803 181.602,121.488 C181.182,121.152 180.993,120.753 180.993,120.249 C180.993,118.674 182.211,117.876 184.647,117.834 L187.146,117.792 L187.146,118.716 C187.146,119.556 186.747,120.312 185.97,120.963 C185.172,121.635 184.269,121.971 183.24,121.971 Z M196.356,127.452 C199.653,127.452 201.312,125.709 201.312,122.244 L201.312,112.143 L199.632,112.143 L199.632,114.012 C198.834,112.563 197.616,111.849 195.978,111.849 C194.466,111.849 193.269,112.374 192.387,113.445 C191.505,114.453 191.085,115.734 191.085,117.33 C191.085,118.905 191.505,120.186 192.387,121.194 C193.269,122.223 194.466,122.748 195.978,122.748 C197.616,122.748 198.834,122.013 199.632,120.564 L199.632,122.475 C199.632,124.869 198.54,126.087 196.356,126.087 C195.369,126.087 194.634,125.898 194.151,125.541 C193.668,125.205 193.353,124.659 193.227,123.924 L191.547,123.924 C191.736,125.1 192.219,125.982 192.996,126.57 C193.752,127.158 194.886,127.452 196.356,127.452 Z M196.209,121.341 C195.033,121.341 194.172,120.921 193.584,120.123 C193.059,119.409 192.807,118.464 192.807,117.33 C192.807,116.112 193.101,115.125 193.689,114.411 C194.298,113.613 195.138,113.235 196.23,113.235 C197.301,113.235 198.141,113.613 198.771,114.411 C199.359,115.125 199.653,116.112 199.653,117.33 C199.653,118.506 199.359,119.472 198.771,120.207 C198.141,120.963 197.301,121.341 196.209,121.341 Z M208.527,123.294 C209.934,123.294 211.089,122.874 211.992,122.076 C212.727,121.404 213.21,120.564 213.462,119.514 L211.782,119.514 C211.509,120.27 211.152,120.837 210.69,121.215 C210.144,121.656 209.409,121.887 208.527,121.887 C207.498,121.887 206.679,121.551 206.091,120.879 C205.503,120.207 205.188,119.262 205.104,118.044 L213.672,118.044 C213.63,116.154 213.21,114.663 212.412,113.613 C211.53,112.437 210.207,111.849 208.464,111.849 C206.889,111.849 205.65,112.416 204.726,113.55 C203.802,114.621 203.361,115.965 203.361,117.561 C203.361,119.325 203.823,120.711 204.789,121.761 C205.713,122.769 206.973,123.294 208.527,123.294 Z M211.929,116.742 L205.146,116.742 C205.251,115.671 205.587,114.831 206.175,114.201 C206.763,113.571 207.54,113.256 208.506,113.256 C210.564,113.256 211.719,114.411 211.929,116.742 Z M217.401,123 L217.401,116.385 C217.401,115.524 217.653,114.789 218.157,114.201 C218.661,113.571 219.291,113.277 220.068,113.277 C221.727,113.277 222.567,114.222 222.567,116.154 L222.567,123 L224.247,123 L224.247,116.196 C224.247,115.314 224.478,114.621 224.982,114.075 C225.444,113.529 226.053,113.277 226.767,113.277 C227.691,113.277 228.363,113.508 228.783,114.012 C229.182,114.474 229.392,115.188 229.392,116.154 L229.392,123 L231.072,123 L231.072,115.881 C231.072,114.642 230.715,113.655 230.043,112.92 C229.329,112.206 228.426,111.849 227.292,111.849 C226.536,111.849 225.906,112.017 225.381,112.353 C224.793,112.668 224.289,113.193 223.869,113.907 C223.26,112.521 222.126,111.849 220.467,111.849 C219.249,111.849 218.22,112.416 217.401,113.592 L217.401,112.143 L215.721,112.143 L215.721,123 L217.401,123 Z M238.287,123.294 C239.694,123.294 240.849,122.874 241.752,122.076 C242.487,121.404 242.97,120.564 243.222,119.514 L241.542,119.514 C241.269,120.27 240.912,120.837 240.45,121.215 C239.904,121.656 239.169,121.887 238.287,121.887 C237.258,121.887 236.439,121.551 235.851,120.879 C235.263,120.207 234.948,119.262 234.864,118.044 L243.432,118.044 C243.39,116.154 242.97,114.663 242.172,113.613 C241.29,112.437 239.967,111.849 238.224,111.849 C236.649,111.849 235.41,112.416 234.486,113.55 C233.562,114.621 233.121,115.965 233.121,117.561 C233.121,119.325 233.583,120.711 234.549,121.761 C235.473,122.769 236.733,123.294 238.287,123.294 Z M241.689,116.742 L234.906,116.742 C235.011,115.671 235.347,114.831 235.935,114.201 C236.523,113.571 237.3,113.256 238.266,113.256 C240.324,113.256 241.479,114.411 241.689,116.742 Z M247.161,123 L247.161,116.448 C247.224,115.461 247.539,114.684 248.127,114.096 C248.673,113.55 249.324,113.277 250.08,113.277 C251.97,113.277 252.936,114.327 252.936,116.448 L252.936,123 L254.616,123 L254.616,116.322 C254.616,113.34 253.251,111.849 250.563,111.849 C249.849,111.849 249.198,112.017 248.61,112.353 C248.022,112.668 247.539,113.13 247.161,113.739 L247.161,112.143 L245.481,112.143 L245.481,123 L247.161,123 Z M262.608,123 L262.608,121.593 L261.222,121.593 C260.844,121.593 260.571,121.488 260.424,121.32 C260.256,121.152 260.193,120.858 260.193,120.459 L260.193,113.55 L262.881,113.55 L262.881,112.143 L260.193,112.143 L260.193,108.636 L258.534,109.329 L258.534,112.143 L256.35,112.143 L256.35,113.55 L258.534,113.55 L258.534,120.459 C258.534,121.278 258.702,121.887 259.059,122.307 C259.437,122.769 260.088,123 260.97,123 L262.608,123 Z M275.925,123.294 C278.991,123.294 280.524,122.16 280.524,119.934 C280.524,118.989 280.083,118.254 279.222,117.708 C278.655,117.351 277.731,117.015 276.429,116.7 C276.247,116.651 276.074333,116.60375 275.911097,116.558153 L275.449778,116.426222 C274.872667,116.256667 274.448,116.112 274.182,115.986 C273.552,115.671 273.258,115.272 273.258,114.81 C273.258,114.327 273.489,113.949 273.951,113.676 C274.371,113.382 274.959,113.256 275.715,113.256 C276.576,113.256 277.248,113.424 277.71,113.76 C278.13,114.054 278.403,114.558 278.55,115.23 L280.188,115.23 C279.894,112.962 278.424,111.849 275.736,111.849 C274.518,111.849 273.51,112.122 272.754,112.668 C271.935,113.214 271.536,113.928 271.536,114.852 C271.536,115.776 271.935,116.469 272.775,116.973 C273.279,117.309 274.182,117.624 275.463,117.939 C276.639,118.233 277.416,118.464 277.773,118.632 C278.445,118.968 278.802,119.43 278.802,120.039 C278.802,121.257 277.815,121.887 275.883,121.887 C274.959,121.887 274.266,121.719 273.804,121.383 C273.342,121.005 273.027,120.396 272.901,119.535 L271.263,119.535 C271.515,122.034 273.069,123.294 275.925,123.294 Z M285.639,127.158 L291.582,112.143 L289.734,112.143 L286.521,120.711 L283.203,112.143 L281.376,112.143 L285.681,122.748 L283.812,127.158 L285.639,127.158 Z M297.096,123.294 C300.162,123.294 301.695,122.16 301.695,119.934 C301.695,118.989 301.254,118.254 300.393,117.708 C299.826,117.351 298.902,117.015 297.6,116.7 C297.418,116.651 297.245333,116.60375 297.082097,116.558153 L296.620778,116.426222 C296.043667,116.256667 295.619,116.112 295.353,115.986 C294.723,115.671 294.429,115.272 294.429,114.81 C294.429,114.327 294.66,113.949 295.122,113.676 C295.542,113.382 296.13,113.256 296.886,113.256 C297.747,113.256 298.419,113.424 298.881,113.76 C299.301,114.054 299.574,114.558 299.721,115.23 L301.359,115.23 C301.065,112.962 299.595,111.849 296.907,111.849 C295.689,111.849 294.681,112.122 293.925,112.668 C293.106,113.214 292.707,113.928 292.707,114.852 C292.707,115.776 293.106,116.469 293.946,116.973 C294.45,117.309 295.353,117.624 296.634,117.939 C297.81,118.233 298.587,118.464 298.944,118.632 C299.616,118.968 299.973,119.43 299.973,120.039 C299.973,121.257 298.986,121.887 297.054,121.887 C296.13,121.887 295.437,121.719 294.975,121.383 C294.513,121.005 294.198,120.396 294.072,119.535 L292.434,119.535 C292.686,122.034 294.24,123.294 297.096,123.294 Z M309.057,123 L309.057,121.593 L307.671,121.593 C307.293,121.593 307.02,121.488 306.873,121.32 C306.705,121.152 306.642,120.858 306.642,120.459 L306.642,113.55 L309.33,113.55 L309.33,112.143 L306.642,112.143 L306.642,108.636 L304.983,109.329 L304.983,112.143 L302.799,112.143 L302.799,113.55 L304.983,113.55 L304.983,120.459 C304.983,121.278 305.151,121.887 305.508,122.307 C305.886,122.769 306.537,123 307.419,123 L309.057,123 Z M315.81,123.294 C317.217,123.294 318.372,122.874 319.275,122.076 C320.01,121.404 320.493,120.564 320.745,119.514 L319.065,119.514 C318.792,120.27 318.435,120.837 317.973,121.215 C317.427,121.656 316.692,121.887 315.81,121.887 C314.781,121.887 313.962,121.551 313.374,120.879 C312.786,120.207 312.471,119.262 312.387,118.044 L320.955,118.044 C320.913,116.154 320.493,114.663 319.695,113.613 C318.813,112.437 317.49,111.849 315.747,111.849 C314.172,111.849 312.933,112.416 312.009,113.55 C311.085,114.621 310.644,115.965 310.644,117.561 C310.644,119.325 311.106,120.711 312.072,121.761 C312.996,122.769 314.256,123.294 315.81,123.294 Z M319.212,116.742 L312.429,116.742 C312.534,115.671 312.87,114.831 313.458,114.201 C314.046,113.571 314.823,113.256 315.789,113.256 C317.847,113.256 319.002,114.411 319.212,116.742 Z M324.684,123 L324.684,116.385 C324.684,115.524 324.936,114.789 325.44,114.201 C325.944,113.571 326.574,113.277 327.351,113.277 C329.01,113.277 329.85,114.222 329.85,116.154 L329.85,123 L331.53,123 L331.53,116.196 C331.53,115.314 331.761,114.621 332.265,114.075 C332.727,113.529 333.336,113.277 334.05,113.277 C334.974,113.277 335.646,113.508 336.066,114.012 C336.465,114.474 336.675,115.188 336.675,116.154 L336.675,123 L338.355,123 L338.355,115.881 C338.355,114.642 337.998,113.655 337.326,112.92 C336.612,112.206 335.709,111.849 334.575,111.849 C333.819,111.849 333.189,112.017 332.664,112.353 C332.076,112.668 331.572,113.193 331.152,113.907 C330.543,112.521 329.409,111.849 327.75,111.849 C326.532,111.849 325.503,112.416 324.684,113.592 L324.684,112.143 L323.004,112.143 L323.004,123 L324.684,123 Z" id="path-1"></path>
    </defs>
    <g id="页面-1" stroke="none" stroke-width="1" fill="none" fill-rule="evenodd">
        <g id="login02备份-13" transform="translate(-45.000000, -107.000000)" fill="#FFFFFF" fill-rule="nonzero">
            <g id="Terminalmanagementsystem">
                <use xlink:href="#path-1"></use>
                <use xlink:href="#path-1"></use>
            </g>
        </g>
    </g>
</svg>